<?xml version="1.0" standalone="no"?>
<!DOCTYPE svg PUBLIC "-//W3C//DTD SVG 20010904//EN"
 "http://www.w3.org/TR/2001/REC-SVG-20010904/DTD/svg10.dtd">
<svg version="1.0" xmlns="http://www.w3.org/2000/svg"
 width="700.000000pt" height="700.000000pt" viewBox="0 0 700.000000 700.000000"
 preserveAspectRatio="xMidYMid meet">
<metadata>
Created by potrace 1.14, written by Peter Selinger 2001-2017
</metadata>
<g transform="translate(0.000000,700.000000) scale(0.100000,-0.100000)"
fill="#000000" stroke="none">
<path d="M3500 5423 c0 -549 0 -1423 0 -1941 0 -606 -3 -943 -10 -940 -5 1
-287 208 -626 458 -340 250 -633 465 -651 478 l-33 23 0 -973 0 -973 73 -54
c39 -30 195 -145 346 -255 150 -111 313 -230 361 -266 394 -291 531 -390 538
-390 5 0 53 34 108 75 54 41 117 87 139 103 22 16 101 74 175 129 74 54 193
142 263 194 71 51 196 144 278 204 82 61 196 145 254 188 l105 77 0 488 c1
268 1 1141 1 1941 l1 1454 -69 51 c-38 28 -152 112 -254 186 -101 74 -186 137
-189 140 -3 3 -45 34 -95 70 -49 36 -154 112 -232 170 -77 58 -212 157 -298
220 -87 63 -164 121 -171 128 -12 11 -14 -143 -14 -985z"/>
</g>
</svg>
